<svg xmlns="http://www.w3.org/2000/svg" xmlns:xlink="http://www.w3.org/1999/xlink" xmlns:svg="http://www.w3.org/2000/svg" width="2899.41" height="2899.03" viewBox="0 0 2899.41 2899.03" preserveAspectRatio="xMidYMid meet"><g transform="matrix(1, 0, 0, 1, 1459.653076171875, 1292.3260498046875)">
		<g transform="matrix(1.1594372987747192, 0, 0, 1.1594371795654297, -1459.1083984375, -1291.7646484375)">
			<path d="M135.08,256.19 L2348.59,235.12 L2351.48,2262.6 L139.13,2250.68 C165.75,1471.32 108.28,712.31 135.08,256.19 Z" style="fill:#FCFCFC;"></path>
			<path d="M653.08,2496.15 C536.59,2486.82 420.26,2460.18 316.76,2404.57 C210.68,2346.09 123.46,2252.69 75.17,2141.35 C22.82,2030.03 5.67,1905.32 0.02,1783.45 C0.25,1422.94 -0.45,1062.4 0.37,701.92 C8.77,538.27 44.62,368.48 148.3,237.17 C169.32,208.09 196.89,184.37 222.42,159.42 C335.93,66.18 480.81,20.27 625.47,6.74 C724.62,-4.97 824.51,1.41 924.07,0.06 C1229.24,0.77 1534.45,0.74 1839.58,1.92 C1956.53,13.72 2074.36,36.85 2178.74,93.22 C2309.39,161.58 2406.34,285.52 2451.54,424.97 C2489.97,540.61 2502.51,663.49 2499.91,784.91 C2499.69,1123.53 2500.46,1462.18 2499.63,1800.77 C2490.09,1967.43 2453.5,2141.84 2343.22,2272.65 C2316.61,2307.53 2282.99,2335.94 2248.73,2362.92 C2217.04,2385.25 2184.54,2406.18 2148.65,2421.16 C2033.82,2476.65 1904.99,2495.84 1778.56,2499.89 C1414.81,2499.46 1051,2500.11 687.27,2499.01 L653.08,2496.15 ZM713.59,2031.04 C733.7,2021.08 727.58,1993.03 734.2,1975.1 C744.85,1931.94 751.4,1883.13 784.65,1850.59 C799.1,1848.9 800.58,1871.34 804.45,1882.21 C810.57,1911.13 811.88,1940.3 809.09,1969.7 C809.75,1983.99 802.32,2001.44 817.99,2009.88 C827.74,2023.57 851.94,2015.96 857.96,2002.58 C867,1977.19 859.31,1949.36 860.65,1922.84 C861.18,1887.96 856.9,1849.95 835.5,1821.36 C823.61,1803.27 801.15,1794.28 780.17,1795.21 C754.84,1801.93 736.53,1820.41 723.44,1842.09 C708.76,1852.9 717.74,1795.28 714.03,1780.31 C711.24,1761.95 718.59,1739.01 704.89,1724.59 C692.36,1715.55 673.99,1715.69 664.73,1729.12 C654.1,1745.74 664.26,1771.77 661.01,1791.35 C664.7,1866.49 665.3,1942.17 676.12,2016.71 C683.63,2029.59 698.88,2038.55 713.59,2031.04 ZM1451.51,2029.91 C1473.21,2024.4 1495.65,2013.93 1507.56,1994.17 C1526.52,1956.01 1522.03,1910.2 1526.27,1868.6 C1526.55,1833.7 1532.33,1797.47 1531.48,1763.35 C1528.43,1743.35 1508.28,1739 1493.06,1744.82 C1473.55,1758.47 1477.1,1786.26 1465.88,1805.53 C1456.25,1831.9 1443.16,1856.88 1427,1879.81 C1403.74,1857.08 1398.22,1819.62 1388.7,1788.91 C1386.12,1776.44 1389.54,1765.11 1381.46,1753.31 C1365.25,1739.84 1340.31,1747.08 1333.01,1767.26 C1331.39,1800.44 1346.25,1831.77 1355.43,1863.04 C1363.45,1888.78 1377.73,1912.37 1398.66,1929.19 C1420.66,1943.88 1450.62,1934.73 1465.82,1914.44 C1475.73,1910.17 1465.97,1951.33 1462.81,1963.49 C1445.28,1987.45 1414.23,1976.08 1389.63,1977.23 C1375.29,1971.18 1357.26,1977.58 1355.12,1994.05 C1347.88,2013.4 1369.74,2030.34 1387.98,2031.08 C1408.7,2032.75 1431.32,2036.9 1451.51,2029.91 ZM585.61,2021.3 C600.49,2019.28 613.62,2014.14 622.56,2001.58 C625,1986.52 621.41,1973.95 608.28,1965.33 C579.09,1965.31 550.46,1980.16 520.74,1973.46 C491.58,1965.78 468.21,1936.29 471.83,1905.53 C467.84,1868.5 478.33,1828.39 505.69,1802.03 C521.08,1793.8 540.72,1795.58 550.8,1810.97 C565.87,1824.49 563.82,1855.15 589.82,1855.24 C612.27,1855.99 625.88,1828.16 612.21,1810.94 C604.64,1792.23 593.88,1775.88 577.68,1763.58 C560.17,1748.07 534.64,1740.78 511.73,1744.21 C456.61,1755.61 425.24,1812.88 418.57,1865.12 C414.55,1901.41 415.72,1940.08 435.51,1972.28 C443.22,1987.16 457.39,1998.72 470.5,2008.58 C496.82,2024.06 527.45,2031.45 557.85,2027.17 C567.33,2026.94 576.34,2023.05 585.61,2021.3 ZM1170.41,1991.58 C1188.63,1972.19 1194.98,1943.72 1211.3,1922.49 C1226.59,1905.08 1243.54,1945.45 1260.38,1953.96 C1275.01,1960.77 1292.71,1974.8 1307.45,1961.35 C1324.77,1952.93 1322.03,1924.71 1306.23,1916.71 C1281.28,1909.98 1268.36,1885.82 1250,1869.55 C1258.42,1842.6 1279.81,1820.52 1293.32,1795.4 C1305.63,1783.57 1307.7,1762.77 1293.81,1751.6 C1278.23,1740.52 1255.26,1748.49 1248.54,1766.37 C1237.46,1785.92 1224.98,1804.62 1213.07,1823.67 C1190.7,1803.75 1172.99,1775.37 1142.74,1767.59 C1118.27,1765.5 1106.01,1797.76 1120.37,1816.44 C1147.13,1825.36 1162.76,1850.53 1181.72,1869.83 C1161.65,1900.49 1141.36,1932.24 1127.93,1966.01 C1124.67,1979.45 1136,1994.38 1147.97,1997.07 C1156.2,1996.4 1165.11,1999.94 1170.41,1991.58 ZM1024.23,1980.23 C1044.08,1972.37 1061.08,1957.73 1073.79,1941.1 C1089.75,1914.74 1099.16,1883.12 1090.65,1852.76 C1082.62,1834.05 1073.36,1816.22 1056.91,1803.52 C1039.41,1788.58 1026.97,1765.16 1002.25,1762.35 C981.14,1759.55 958.21,1767.43 941.66,1780.79 C925.92,1794.69 913.34,1810.82 905.91,1830.6 C893.15,1858.14 889.66,1890.23 895.91,1919.84 C899.66,1945.52 915.07,1965.46 934.11,1981.68 C954.58,1996.04 980.26,1991.13 1003.84,1990.33 L1024.23,1980.23 ZM965.18,1937.08 C952.59,1931.5 947.67,1913.58 947.09,1900.76 C946.99,1875.87 950.37,1850.86 966.82,1830.77 C975.66,1816.38 992.02,1812.17 998.6,1830.68 C1018.64,1830.95 1027.65,1851.94 1038.01,1865.96 C1042.56,1879.21 1038.22,1896.19 1030.39,1908.07 C1018.45,1928.45 993.48,1940.88 970.72,1939.88 L965.18,1937.08 ZM2101.42,1973.84 C2122.84,1956.5 2092.88,1929.89 2103.13,1912.48 C2153.95,1898.6 2203.88,1866.8 2219.12,1813.48 C2225.79,1797.19 2218.91,1778.71 2219.76,1761.47 C2212.87,1739.81 2196.91,1723.16 2180.42,1708.51 C2152.27,1692.41 2119.51,1686.45 2087.41,1690.31 C2066.23,1688.47 2045.09,1696.07 2031.32,1712.88 C2032.58,1792.75 2039.27,1873.03 2053.4,1951.67 C2055.75,1974.03 2076.87,1990.63 2097.55,1978.3 L2101.42,1973.84 ZM2090.31,1822.13 C2092.98,1798.72 2077.92,1757.79 2089.54,1742.8 C2112.38,1744.22 2137.91,1741.12 2156.41,1756.74 C2168.11,1767.85 2168.96,1784.35 2167.71,1799.28 C2163.35,1818.45 2148.65,1832.75 2133.03,1843.34 C2117.77,1849.57 2086.3,1871.74 2091.77,1841.32 L2090.31,1822.13 ZM1638.94,1938.42 C1656.29,1921.25 1633.79,1893.9 1635.74,1872.25 C1662.87,1860.9 1699.03,1849.81 1722.35,1826.38 C1748.34,1804.34 1772.4,1772.33 1767.54,1736.52 C1768.12,1721.24 1759.88,1705.77 1750.7,1694.02 C1729.19,1665.25 1691.82,1653.35 1656.77,1655.34 C1632.47,1655.34 1607.64,1660.48 1584.4,1665.96 C1569.1,1672.86 1566.24,1691.82 1574.55,1705.32 C1578.52,1778.41 1576.41,1852.4 1590.43,1924.44 C1593.91,1946.04 1619.78,1955.41 1635.18,1942.64 L1638.94,1938.42 ZM1632.38,1814.45 C1629.1,1781.29 1629.14,1747.89 1627.68,1714.61 C1646.16,1710.61 1669.61,1704.18 1687.96,1712.42 C1701.82,1715.95 1710.5,1724.78 1714.45,1738.43 C1720.15,1756.02 1701.64,1774.91 1688.78,1785.71 C1672.49,1796.29 1650.52,1817.13 1632.38,1814.45 ZM1932.71,1912.44 C1952.38,1904.81 1968.28,1889.33 1981.38,1873.53 C1996.1,1849.4 2006.2,1820.99 2000.21,1792.59 C1991.18,1753.41 1955.85,1727.74 1929.19,1699.76 C1906.36,1689.57 1879.57,1694.12 1858.33,1706.28 C1820.74,1731.67 1802.62,1779.17 1801.35,1823.54 C1798.02,1871.82 1833.6,1926.71 1885.97,1924.87 C1902.48,1922.91 1918.43,1922 1932.71,1912.44 ZM1869.35,1866.24 C1850.89,1849.57 1855.47,1823.41 1857.17,1801.15 C1863.18,1779.97 1872.66,1754.94 1895.75,1748.03 C1901.28,1762.03 1916.15,1764.15 1927.09,1771.42 C1940.78,1786.32 1954.69,1805.12 1945,1825.85 C1938.11,1852.56 1912.19,1867.61 1887.31,1872.56 C1879.64,1872.92 1873.94,1873.71 1869.35,1866.24 ZM896.08,1734.36 C926.71,1706.16 968.72,1693.82 1009.65,1696.78 C1034.77,1699.98 1056.39,1713.2 1076.41,1728.09 C1093.96,1713.83 1115.52,1701.15 1139.07,1702.54 C1160.73,1700.77 1180.41,1710.99 1198.98,1720.93 C1211.85,1703.06 1231.03,1691.27 1251.01,1683.47 C1273.75,1681.91 1296.58,1679.57 1317.91,1689.35 C1330.79,1688.06 1343.27,1678.54 1357.52,1682.13 C1382.51,1679.31 1407.98,1688.15 1424.98,1706.84 C1443.79,1715.35 1464.09,1672.32 1490.98,1677.72 C1513.98,1678.91 1508.71,1651.15 1519.62,1636.96 C1535.72,1618.64 1555.63,1601.7 1580.89,1599.45 C1615.67,1589.77 1651.31,1590.02 1687.01,1590.82 C1716.02,1592.4 1743.56,1606.41 1768.65,1620.11 C1781.58,1630.32 1792.76,1646.27 1806.74,1653.05 C1841.43,1646.18 1873.4,1623.91 1910.14,1628.44 C1935.82,1626.06 1965.01,1618.16 1982.31,1597.9 C1985.36,1573.67 1950.21,1570.46 1935.1,1558.4 C1917.79,1552.27 1905.72,1539.04 1893.57,1525.93 C1925.5,1490.49 1967.12,1464.4 1991.68,1422.44 C2008.99,1401.79 2025.41,1376.78 2021.06,1348.58 C2023.49,1312.2 2003.5,1280.33 1983.39,1251.72 C1978.24,1225.97 2039.73,1231.07 2056.2,1211.22 C2094.24,1190.22 2123.48,1155.55 2147.41,1120.11 C2152.3,1106.84 2166.44,1091.4 2158.57,1077.92 C2137.71,1064.55 2109.77,1075.51 2087.16,1066.02 C2025.1,1045.39 1981.49,993.01 1940.37,944.88 C1944.36,930.76 1965.45,939.65 1975.1,929.59 C2012.67,911.02 2058.01,892.89 2073.97,850.83 C2093.59,819.68 2105.71,784.53 2106.32,747.67 C2114.75,699.33 2110.77,650.23 2111.82,601.44 C2100.22,581.71 2079,596.32 2062.98,602.83 C2050.45,617.31 2039.07,644.51 2015.38,642.08 C2001.1,644.35 1988.71,640.45 1978.11,630.64 C1956.27,617.65 1927.57,640.96 1902.88,641.64 C1869.02,650.98 1836.83,665.21 1805.42,680.74 C1795.9,669.38 1818.73,635.85 1799.32,634.77 C1773.46,637.15 1745.83,611.03 1749.08,584.72 L1747.59,507.95 C1725.67,507.1 1706.9,487.51 1704.1,466.5 C1700.59,447.06 1708.58,430.24 1724.39,418.34 C1735.89,404.97 1699.34,383.6 1690.96,371.55 C1661.61,351.02 1637.74,313.22 1598.9,312.5 C1576.69,331.68 1572.23,363.33 1557.2,387.54 C1525.43,449.56 1504.09,516.75 1495.51,585.94 C1437.15,574.02 1382.96,544.04 1322.56,540.27 C1277.64,532.57 1231.86,539.79 1186.54,539.1 C1141.31,541.36 1097.84,556.61 1052.28,557.53 C999.95,561.67 947.26,558.97 894.78,560.3 C850.56,552.73 807.99,538.4 763.79,530.97 C729.97,502.19 734.25,572.02 729.98,591.54 C735.08,619.1 747.44,645.43 755.62,672.44 C773.88,689.78 795.42,710.83 762.36,727.72 C739.34,751.84 711.56,772.02 696.9,802.8 C660.12,853.12 626.92,906.3 589.11,955.73 C556.82,991.02 526.52,1031.4 480.5,1049.34 C461.79,1061.77 438.43,1058.71 417.22,1062.83 C404.81,1080.9 432.49,1097.6 439.3,1114.3 C458.95,1144.67 496.53,1156.47 523.92,1178.41 C538.93,1197.2 586.64,1182.13 588.36,1203.84 C576.83,1235.11 558.09,1265.39 559.1,1299.72 C555.35,1357.42 549.53,1415.64 550.96,1473.24 C556.18,1494.61 583.71,1470.99 598.7,1469.66 C623.51,1466.41 648.33,1462.32 672.87,1469.45 C690.35,1479.58 721.62,1468.37 730.14,1474.61 C723.13,1500.6 708.73,1525.02 704.93,1551.51 C704.16,1586.28 700.68,1621.16 706.79,1655.66 C731.95,1662.12 752.35,1687.94 776.73,1665.67 C794.07,1657.94 814.37,1660.39 832.52,1654.66 C834.17,1672.49 822.4,1688.56 813.65,1703.12 C809.75,1711.68 780.35,1729.93 796.04,1731.04 C821.57,1728.4 843.19,1751.17 865.18,1752.92 C877.55,1749.97 887.09,1743.11 896.08,1734.36 ZM2019.46,603.87 C2029.29,593.2 2021.38,574.67 2023.93,560.77 C2022.3,530.11 2028.31,498.51 2018.49,468.87 C2011.05,456.36 1992.49,449.86 1983.93,464.69 C1965.77,487.8 1955.98,516.02 1943.47,542.35 C1924.81,513.95 1923.5,473.87 1897.21,449.22 C1868.37,443.41 1866.24,480.16 1862.77,499.85 C1859.96,532.25 1856.83,565.97 1861.42,598.01 C1867.78,615.92 1894.78,600.79 1886.39,583.69 L1888.47,495.97 C1909.59,505.66 1908.16,559.95 1930.93,579.75 C1942.41,591.51 1959.29,577.26 1962.85,564.26 C1974.97,542.41 1981.29,516.48 1997.07,497.45 L1997.07,600.31 C2003.49,605.06 2012.41,612.03 2019.46,603.87 ZM1809.35,592.75 C1815.19,574.53 1809.7,553.55 1811.15,534.26 L1810.3,474.85 C1825.49,474.97 1855.12,473.37 1841.87,450.61 C1830.64,441.91 1812.82,449.12 1798.97,446.74 C1779.79,453.09 1744.08,431.34 1738.28,458.52 C1739.51,487.45 1791.61,459.64 1781.92,493.31 C1784.43,525.87 1780.92,559.63 1785.96,591.63 C1788.16,600.92 1805.49,601.65 1809.35,592.75 Z" style="fill:#969696;"></path>
			<path d="M681.15,2497.34 C504.94,2487.14 318.61,2439.18 191.6,2309.28 C64.54,2185.09 14.32,2003.54 3.91,1830.71 C-3.83,1723.17 1.3,1615.28 0.14,1507.57 C0.84,1228.44 0.82,949.28 1.98,670.18 C14.63,526.77 46.59,380.04 131.75,260.96 C232.17,115.36 404.46,36.53 575.87,13.85 C636.18,4.43 697.01,-0.82 758.06,1.22 C1111.24,1.38 1464.45,0.9 1817.61,1.46 C1968.9,12.8 2124.72,46.41 2248.77,138.42 C2351.73,214.56 2422.76,327.39 2458.55,449.44 C2481.91,524.81 2492.15,603.92 2498.52,682.37 C2498.84,1043.69 2500.28,1405.04 2499.91,1766.35 C2494.46,1921.24 2469.98,2081.42 2385.06,2214.38 C2306.98,2338.82 2177.67,2425.92 2036.35,2462.52 C1961.98,2483.09 1884.9,2495.24 1807.86,2498.48 C1440.85,2498.48 1073.79,2499.68 706.8,2498.92 L681.15,2497.34 ZM712.46,2033.48 C733.66,2026.77 730.88,1998.69 734.99,1980.99 C744.73,1937.58 751.98,1889.07 783.2,1855.17 C798.4,1848.87 800.35,1878.05 803.08,1889.14 C811.6,1924.01 806.63,1959.63 805.63,1995.04 C809.38,2012.2 829.41,2025.9 845.6,2016.3 C868.95,2006.29 863.36,1977.42 864.05,1956.79 C865.24,1921.1 863.6,1884.66 853.15,1850.44 C843.88,1830.62 834.8,1806.86 811.81,1800.39 C798.75,1790.27 781.52,1794.93 766.93,1797.65 C747.16,1799.48 722.23,1850.35 718.34,1837.02 C716.56,1803.29 717.57,1768.83 714.04,1735.55 C709.34,1717.72 686.21,1711.96 671.4,1720.16 C647.98,1738.21 661.08,1768.52 659.22,1793.17 C662.31,1865.27 663.92,1937.62 672.87,2009.28 C674.87,2029.7 693.88,2040.35 712.46,2033.48 ZM1438.21,2033.38 C1463.6,2032.17 1488.58,2019.41 1505.65,2001.21 C1526.27,1967.87 1523.22,1927.48 1527.23,1889.88 C1528.96,1848.25 1531.62,1805.58 1534.44,1764.55 C1530.78,1748.84 1516.09,1737 1499.73,1740.72 C1486.83,1741.39 1477.64,1756.31 1475.87,1768.61 C1464.1,1807.31 1450.53,1847.21 1423.94,1878.49 C1404.9,1842.27 1391.17,1802.7 1386.77,1762.06 C1381.04,1743.42 1358.46,1738.88 1344.06,1749.93 C1316.31,1769.68 1339.81,1813.05 1345.12,1840.06 C1356.91,1873.6 1369.43,1911.02 1399.96,1931.86 C1422.3,1946.25 1450.68,1936.23 1466.37,1916.43 C1467.5,1928.19 1469.04,1955.11 1457.01,1966.6 C1445.6,1979.47 1425.47,1977.42 1409.86,1979.89 C1392.3,1975.94 1372.14,1965.49 1357.73,1983.06 C1347.63,1994.07 1351.34,2009.57 1358.04,2021.7 C1382.13,2035.62 1411.15,2038.35 1438.21,2033.38 ZM588.86,2022.48 C606.19,2020.03 626.94,2010.32 625,1989.99 C627.23,1976.59 612.16,1961.43 599,1962.95 C578.97,1962.55 561.43,1977.19 540.77,1972.89 C500.26,1977.23 468.47,1936.05 471.19,1897.65 C473.87,1862.25 481.38,1813.67 518.8,1799.33 C534.44,1795.04 543.66,1807.48 554.05,1816.84 C562.48,1832.64 567.76,1859.75 591.11,1855.47 C604.04,1858.02 620.05,1845.03 617.68,1831.54 C619.78,1813.14 606.93,1797.35 599.28,1781.68 C586.46,1767.37 573.18,1753.72 554.48,1747.54 C536.37,1738.5 514.49,1738.66 496.09,1747.02 C478.63,1751.31 465.2,1765.53 452.88,1777.72 C433.74,1801.36 422.05,1829.39 417.82,1859.63 C408.52,1910.11 419,1970.26 460.6,2003.73 C497.54,2030.79 545.79,2035.5 588.86,2022.48 ZM1170.42,1994.38 C1188.6,1977.21 1193.93,1949.44 1209.19,1929.37 C1223.49,1901.88 1244.57,1949.02 1263.2,1957.97 C1278.08,1966.73 1297.8,1974.09 1312.21,1960.34 C1326.37,1948.93 1323.16,1920.15 1304.26,1913.98 C1282.15,1904.46 1266.16,1884.15 1252.85,1865.11 C1262.26,1843.06 1281.06,1822.22 1292.95,1800.14 C1304.7,1786.69 1310.06,1768.45 1298.41,1752.47 C1286,1745.33 1271.3,1740.1 1258.99,1749.85 C1239.92,1768.73 1229.21,1805.52 1210.67,1818.67 C1189.74,1800.91 1173.99,1772.11 1145.21,1767.58 C1130.51,1764.61 1113.61,1773.45 1112.66,1789.42 C1109,1802.42 1117.31,1819.05 1130.74,1822.98 C1145.35,1836.99 1180.06,1856.24 1175.37,1876.12 C1156.91,1907.97 1129.4,1939.39 1126.66,1976.58 C1128.72,1996.94 1155.66,2007.19 1170.42,1994.38 ZM1008.48,1988.9 C1050.01,1975.97 1084.82,1942.93 1093.25,1899.38 C1096.12,1873.33 1095.04,1844.01 1076.77,1823.28 C1062.04,1800.8 1039.16,1785.05 1020.96,1765.45 C998.06,1756.65 971.63,1759.37 950.82,1772.33 C936.11,1781.97 921.81,1795.62 913.48,1811.33 C901.34,1832.09 894.5,1854.64 891.06,1878.36 C890.16,1909.92 894.18,1943.29 916.73,1967.85 C933.83,1987.82 960.45,1997.76 986.33,1994.44 C994.19,1995.41 1001.11,1990.86 1008.48,1988.9 ZM963.68,1933.61 C943.95,1918.19 946.44,1888.55 952.37,1866.67 C957.99,1847.52 966.01,1824.94 986.82,1818.47 C994.16,1835.95 1018.04,1833.49 1025.83,1850.96 C1038.65,1860.97 1039.67,1876.53 1036.67,1891.31 C1027.94,1920.05 999.54,1938.16 970.46,1938.95 L963.68,1933.61 ZM2094.96,1981.08 C2121.54,1969.28 2105.91,1937.35 2101.87,1916.04 C2120.11,1906.22 2148.76,1900.31 2168.49,1886.79 C2185.72,1868.78 2207.48,1853.97 2214.93,1829.04 C2228.52,1800.63 2225.9,1765.9 2211.49,1738.38 C2196.05,1721.61 2182.27,1701.88 2158.38,1696.95 C2130.6,1685.62 2099.79,1685.01 2070.66,1688.53 C2054.56,1693.2 2035.44,1698.23 2028.7,1714.79 C2032.33,1797.32 2035.76,1880.65 2053.55,1961.62 C2060.39,1977.87 2076.61,1990.92 2094.96,1981.08 ZM2094.73,1851.01 C2092.05,1815.71 2089,1780.43 2087.57,1745.04 C2109.54,1747.45 2133.81,1741.66 2152.27,1756.56 C2168.09,1766.19 2167.66,1787.69 2164.6,1803.76 C2153.03,1832.93 2124.35,1850.35 2094.73,1855.47 L2094.73,1853.03 L2094.73,1851.01 ZM1639.93,1939.97 C1659.53,1926.25 1636.04,1904.73 1639.91,1886.27 C1632.87,1866.8 1656.6,1868.43 1668.81,1862.16 C1697.51,1851.42 1722.16,1831.98 1742.65,1809.38 C1755.85,1798.04 1761.91,1780.34 1768.53,1764.97 C1769.85,1745.84 1772.83,1726.46 1762.71,1709.1 C1744.92,1672.21 1701.34,1652.26 1661.4,1653.09 C1635.68,1657.2 1607.79,1655.52 1583.57,1664.23 C1570.8,1670.34 1563.98,1685.93 1569.62,1699.19 C1580.75,1777.65 1571.65,1858.72 1592.1,1935.79 C1602.39,1948.15 1614.62,1954.32 1630.5,1948.88 C1634.39,1947.93 1636.76,1942.47 1639.93,1939.97 ZM1632.46,1786.5 C1633.28,1763.59 1626.81,1733.26 1633.27,1713.8 C1656.8,1711.32 1686.27,1706.8 1704.95,1723.84 C1718.71,1740.61 1713.27,1758.38 1699.93,1772.47 C1682.48,1791.31 1658.43,1806.35 1634.05,1813.96 L1632.46,1786.5 ZM1931.83,1914.74 C1953.01,1906.99 1969.81,1890.49 1983.77,1873.54 C2000.99,1843.55 2013.26,1805.32 1994.52,1773.06 C1982.7,1742.23 1953.22,1724.05 1932.29,1699.76 C1912.25,1687.35 1888.2,1690.87 1867.64,1700.08 C1828.26,1716.66 1809.36,1761.32 1800.54,1800.54 C1801.81,1825.14 1795.89,1851.1 1809.06,1873.44 C1820.82,1904.26 1853.95,1931.48 1888.41,1925.36 C1904.65,1926.24 1917.89,1923.36 1931.83,1914.74 ZM1871.43,1866.2 C1853.31,1849.45 1856.21,1824.94 1858.05,1803.12 C1865.73,1783.25 1871.62,1757.79 1894.13,1750.57 C1903.16,1766.47 1919.85,1764.71 1929.74,1777.65 C1943.63,1790.51 1951.3,1809.6 1942.55,1827.44 C1936.74,1851.28 1912.1,1863.21 1890.87,1870.11 C1884.3,1869.03 1875.51,1873.15 1871.43,1866.2 ZM871.83,1752.59 C893.68,1744.88 906.73,1722.02 929.08,1714.42 C952.39,1701.13 978.25,1696 1004.64,1698.5 C1031.5,1697.66 1054.2,1716.3 1075.98,1730.07 C1094.14,1715.09 1115.75,1701.51 1140.14,1705.47 C1156.88,1702.86 1171.9,1707.71 1186.02,1716.52 C1200.61,1731.24 1209.11,1712.4 1219.29,1702.78 C1235.35,1693.02 1253.2,1680.49 1273.1,1683.44 C1288.88,1681.61 1303.6,1685.34 1317.71,1692.31 C1337.3,1681.6 1359.08,1683.39 1380.62,1683.77 C1398.22,1689.64 1415.21,1696.48 1427.22,1711.32 C1438.78,1715.85 1448.06,1692.04 1461.56,1689.39 C1475.24,1676.1 1508.05,1687.19 1510.07,1665.03 C1518.01,1631.89 1547.9,1605.28 1581.7,1601.88 C1639.09,1589.44 1702.7,1583.61 1755.51,1615.26 C1774.99,1624.49 1788.2,1642.09 1804.24,1655.91 C1838.82,1650.23 1869.11,1625.58 1905.49,1629.54 C1930.47,1630.49 1955.84,1621.03 1976.65,1608.68 C1995.47,1591.17 1974.22,1572.9 1956.89,1567.48 C1935.52,1555.75 1911.56,1546.95 1897,1526.18 C1923.48,1492.16 1964.37,1471.66 1986.14,1433.56 C2005.88,1407.94 2028.92,1379.16 2023.93,1344.78 C2025.76,1325.3 2016.27,1309.4 2010.75,1290.45 C2001.76,1274.25 1987.43,1258.21 1979.98,1243.06 C2040.35,1228.35 2096.83,1195.4 2132.73,1143.63 C2146.2,1127.59 2158.26,1108.29 2163.03,1088.21 C2164.26,1059.12 2124.11,1076.81 2107.49,1067.55 C2039.66,1057.82 1993.29,1002.75 1950.84,954.33 C1931.54,927.58 1999.25,934.71 2011.57,913.53 C2048.16,898.39 2070.77,866.77 2086.19,831.85 C2110.78,792.23 2107.51,743.93 2114,699.46 L2114.1,601.81 C2102.35,579.02 2077.71,595.32 2060.89,601.38 C2048.93,613.71 2039.65,642.53 2015.92,639.65 C2001.49,641.83 1988.83,638.2 1978.11,628.2 C1956.49,614.66 1928.16,639.93 1903.57,638.95 C1871.41,644.36 1825.3,674.74 1804.31,674.47 C1804.97,655.33 1821.38,622.84 1788.94,631.73 C1769.08,626.95 1752.04,611.48 1751.04,590.47 C1749.56,562.23 1751.96,533.54 1747.77,505.54 C1730.43,505.89 1718.17,492.45 1708.83,479.82 C1697.1,455.59 1710.8,429.06 1730.96,413.76 C1704.36,375.06 1665.71,346.45 1628.7,318.33 C1613.77,304.34 1589.31,308.51 1583.48,328.26 C1542.97,409.65 1501.72,494.07 1494.14,585.94 C1424.63,562.4 1353.1,534.18 1278.08,536.48 C1230.76,534.37 1183.64,537.76 1136.58,542.42 C1102.44,554.05 1064.85,552.8 1029.05,557.02 C982.74,556.42 936.13,559.4 890.01,556.56 C846.3,550.43 804.63,534.66 760.75,529.67 C746.17,510.08 732.1,533.52 733.22,550.56 C725,576.14 726.09,601.9 737.34,626.22 C737.15,659.64 779.4,687.6 775.28,711.94 C748.33,742.96 712.44,766.4 693.5,803.75 C639.06,879.67 592.08,963.21 519.58,1023.92 C493.82,1045.7 461.97,1057.74 428.56,1058.99 C411.79,1055.87 407.36,1076.28 417.97,1086.05 C434.59,1111.74 451.67,1138.99 480.47,1152.14 C511.21,1171.75 541.68,1195.95 580.03,1196.29 C591.75,1214.98 558.64,1257.63 557.45,1288.71 C554.83,1350.11 548.26,1412.01 548.63,1473.25 C550.56,1489.2 572.55,1481.07 582.73,1477.12 C602.98,1469.46 625.81,1467.57 647.26,1467.84 C674,1470.51 700.65,1478.11 727.54,1472.88 C716.42,1513.34 696.53,1553.44 700.99,1596.68 C706.8,1616.21 690.94,1653.72 715.73,1660.63 C739.23,1678.3 760.48,1680.85 784.88,1664.98 C809.67,1658.85 847.36,1651.36 820.01,1688.36 C813.35,1706.27 796.19,1716.81 784.23,1731 C806.57,1734.77 829.48,1736.43 848.66,1749.63 C856,1753.82 863.65,1757.24 871.83,1752.59 ZM1884.77,603.03 C1895.1,591.98 1887.26,573.37 1889.79,559.08 C1891.67,538.46 1885.92,516.39 1893.78,496.9 C1902.96,522.26 1909.44,549.83 1922.77,573.03 C1929.02,585.99 1947.25,592.72 1955.62,578.16 C1972.9,557.39 1979.24,529.4 1992.04,505.68 C2001.9,503.82 1994.02,532.1 1995.72,542.21 C1996.04,560.48 1992.48,579.84 1995.21,597.44 C1998.37,610.92 2019.59,613.03 2024.15,599.94 C2029.82,581.15 2024.56,559.17 2025.92,539.12 C2023.45,514.08 2031.21,486.72 2016.91,464.37 C2009.65,450.76 1992.07,453.07 1981.76,462.65 C1965.89,487.06 1954.12,513.62 1942.78,540.35 C1924,510.95 1926.53,458.68 1888.86,447.2 C1870.3,445.59 1866.41,472.04 1863.31,486.07 C1854.47,522.82 1859.14,560.75 1857.91,598.14 C1863.96,607.14 1876.91,613.5 1884.77,603.03 ZM1807.37,597.53 C1816.88,587.57 1809.13,568.82 1811.89,555.42 L1812.74,474.85 C1828.61,476.9 1858.03,471.92 1843.27,449.79 C1832.63,438.83 1813.61,447.62 1799.33,445.24 L1742.27,446.24 C1726.8,461.41 1745.48,479.12 1762.67,476.07 C1783.12,473.14 1784.44,486.81 1782.29,503.49 L1783.45,593.66 C1789.94,599.32 1799.54,603.57 1807.37,597.53 Z" style="fill:#2F82C4;"></path>
		</g>
	</g></svg>